<svg width="275" height="50" viewBox="0 0 275 50" fill="none" xmlns="http://www.w3.org/2000/svg">
<g clip-path="url(#clip0_1_2)">
<path d="M1.94852 0H29.897C33.0579 0 35.8508 0.661545 38.2757 1.98463C40.7438 3.26504 42.6707 5.03628 44.0563 7.29833C45.442 9.56039 46.1348 12.1852 46.1348 15.1729C46.1348 18.6726 45.1389 21.7029 43.147 24.2638C41.1552 26.7819 38.5138 28.5105 35.223 29.4494L46.3946 47.0551C46.9575 47.9087 47.0658 48.6129 46.7193 49.1677C46.4162 49.7226 45.7667 50 44.7708 50C44.2945 50 43.9264 49.9146 43.6666 49.7439C43.4501 49.5305 43.2336 49.2744 43.0171 48.9757L31.0661 30.1537H17.4913C16.4151 30.1537 15.5427 29.2938 15.5427 28.233C15.5427 27.1723 16.4151 26.3124 17.4913 26.3124H29.897C32.3218 26.3124 34.4436 25.8429 36.2622 24.904C38.1241 23.9223 39.5747 22.5992 40.6139 20.9347C41.6964 19.2702 42.2377 17.3496 42.2377 15.1729C42.2377 12.9535 41.6964 10.9902 40.6139 9.28297C39.5747 7.57575 38.1241 6.25267 36.2622 5.3137C34.4436 4.33205 32.3218 3.84123 29.897 3.84123H1.94852C1.4289 3.84123 0.974278 3.64917 0.584564 3.26504C0.19485 2.88092 0 2.43278 0 1.92061C0 1.36577 0.194851 0.896287 0.584564 0.512165C0.974278 0.170723 1.4289 0 1.94852 0Z" fill="white"/>
<path d="M97.7825 50C97.2196 50 96.7433 49.8293 96.3536 49.4878C96.0071 49.1037 95.8339 48.6342 95.8339 48.0794V1.92061C95.8339 1.36577 96.0071 0.917625 96.3536 0.576184C96.7433 0.192061 97.2196 0 97.7825 0C98.3454 0 98.8 0.192061 99.1465 0.576184C99.5362 0.917625 99.731 1.36577 99.731 1.92061V48.0794C99.731 48.6342 99.5362 49.1037 99.1465 49.4878C98.8 49.8293 98.3454 50 97.7825 50Z" fill="white"/>
<path d="M169.849 50C169.026 50 168.441 49.5945 168.095 48.7836L148.61 3.137C148.177 2.15535 148.155 1.38711 148.545 0.832267C148.978 0.277422 149.562 0 150.298 0C151.121 0 151.749 0.448143 152.182 1.34443L169.914 43.2138L187.451 1.60051C187.883 0.533504 188.598 0 189.594 0C190.373 0 190.893 0.320102 191.153 0.960306C191.413 1.60051 191.369 2.32608 191.023 3.137L171.602 48.7836C171.386 49.2531 171.104 49.5732 170.758 49.7439C170.455 49.9146 170.152 50 169.849 50Z" fill="white"/>
<path d="M241.81 50C241.247 50 240.771 49.8293 240.381 49.4878C240.035 49.1037 239.861 48.6342 239.861 48.0794V1.92061C239.861 1.36577 240.035 0.917625 240.381 0.576184C240.771 0.192061 241.247 0 241.81 0H273.051C273.571 0 274.026 0.192061 274.415 0.576184C274.805 0.917625 275 1.36577 275 1.92061C275 2.43278 274.805 2.88092 274.415 3.26504C274.026 3.64917 273.571 3.84123 273.051 3.84123H243.758V23.0474H265.257C265.82 23.0474 266.275 23.2394 266.621 23.6236C267.011 23.965 267.206 24.4131 267.206 24.968C267.206 25.5228 267.011 25.9923 266.621 26.3764C266.275 26.7606 265.82 26.9526 265.257 26.9526H243.758V46.1588H273.051C273.571 46.1588 274.026 46.3508 274.415 46.735C274.805 47.1191 275 47.5672 275 48.0794C275 48.6342 274.805 49.1037 274.415 49.4878C274.026 49.8293 273.571 50 273.051 50H241.81Z" fill="white"/>
</g>
<defs>
<clipPath id="clip0_1_2">
<rect width="275" height="50" fill="white"/>
</clipPath>
</defs>
</svg>
